<svg width="22" height="22" viewBox="0 0 22 22" fill="none" xmlns="http://www.w3.org/2000/svg">
<path d="M18.2875 19.25C16.3778 19.25 14.4873 18.8375 12.6161 18.0125C10.7449 17.1875 9.04506 16.0111 7.51667 14.4833C5.98828 12.9556 4.81189 11.2597 3.9875 9.39583C3.16311 7.53194 2.75061 5.6375 2.75 3.7125V2.75H8.15833L9.00625 7.35625L6.39375 9.99167C6.72986 10.5875 7.10417 11.1528 7.51667 11.6875C7.92917 12.2222 8.37222 12.7188 8.84583 13.1771C9.28889 13.6201 9.77411 14.0442 10.3015 14.4494C10.8289 14.8546 11.3978 15.2326 12.0083 15.5833L14.6667 12.925L19.25 13.8646V19.25H18.2875ZM5.52292 8.25L7.03542 6.7375L6.64583 4.58333H4.60625C4.68264 5.27083 4.79722 5.91647 4.95 6.52025C5.10278 7.12403 5.29375 7.70061 5.52292 8.25ZM13.7271 16.4542C14.3382 16.7139 14.9533 16.9201 15.5723 17.0729C16.1914 17.2257 16.8062 17.325 17.4167 17.3708V15.3542L15.2625 14.9187L13.7271 16.4542Z" fill="#151312" fill-opacity="0.4"/>
</svg>
